<?xml version="1.0" encoding="UTF-8"?>
<svg xmlns="http://www.w3.org/2000/svg" xmlns:xlink="http://www.w3.org/1999/xlink" width="37.5pt" height="37.499999pt" viewBox="0 0 37.5 37.499999" version="1.2">
<defs>
<clipPath id="clip1">
  <path d="M 0 0 L 37.007812 0 L 37.007812 37.007812 L 0 37.007812 Z M 0 0 "/>
</clipPath>
</defs>
<g id="surface1">
<g clip-path="url(#clip1)" clip-rule="nonzero">
<path style=" stroke:none;fill-rule:nonzero;fill:rgb(23.139954%,34.899902%,59.609985%);fill-opacity:1;" d="M 5.625 0 L 31.875 0 C 32.246094 0 32.609375 0.0351562 32.972656 0.109375 C 33.335938 0.179688 33.6875 0.285156 34.027344 0.429688 C 34.367188 0.570312 34.691406 0.742188 35 0.949219 C 35.308594 1.152344 35.589844 1.386719 35.851562 1.648438 C 36.113281 1.910156 36.347656 2.191406 36.550781 2.5 C 36.757812 2.808594 36.929688 3.132812 37.070312 3.472656 C 37.214844 3.8125 37.320312 4.164062 37.390625 4.527344 C 37.464844 4.890625 37.5 5.253906 37.5 5.625 L 37.5 31.875 C 37.5 32.246094 37.464844 32.609375 37.390625 32.972656 C 37.320312 33.335938 37.214844 33.6875 37.070312 34.027344 C 36.929688 34.367188 36.757812 34.691406 36.550781 35 C 36.347656 35.308594 36.113281 35.589844 35.851562 35.851562 C 35.589844 36.113281 35.308594 36.347656 35 36.550781 C 34.691406 36.757812 34.367188 36.929688 34.027344 37.070312 C 33.6875 37.214844 33.335938 37.320312 32.972656 37.390625 C 32.609375 37.464844 32.246094 37.5 31.875 37.5 L 5.625 37.5 C 5.253906 37.5 4.890625 37.464844 4.527344 37.390625 C 4.164062 37.320312 3.8125 37.214844 3.472656 37.070312 C 3.132812 36.929688 2.808594 36.757812 2.5 36.550781 C 2.191406 36.347656 1.910156 36.113281 1.648438 35.851562 C 1.386719 35.589844 1.152344 35.308594 0.949219 35 C 0.742188 34.691406 0.570312 34.367188 0.429688 34.027344 C 0.285156 33.6875 0.179688 33.335938 0.109375 32.972656 C 0.0351562 32.609375 0 32.246094 0 31.875 L 0 5.625 C 0 5.253906 0.0351562 4.890625 0.109375 4.527344 C 0.179688 4.164062 0.285156 3.8125 0.429688 3.472656 C 0.570312 3.132812 0.742188 2.808594 0.949219 2.5 C 1.152344 2.191406 1.386719 1.910156 1.648438 1.648438 C 1.910156 1.386719 2.191406 1.152344 2.5 0.949219 C 2.808594 0.742188 3.132812 0.570312 3.472656 0.429688 C 3.8125 0.285156 4.164062 0.179688 4.527344 0.109375 C 4.890625 0.0351562 5.253906 0 5.625 0 Z M 5.625 0 "/>
</g>
<path style=" stroke:none;fill-rule:nonzero;fill:rgb(100%,100%,100%);fill-opacity:1;" d="M 21.019531 33.398438 L 21.019531 11.5 C 21.019531 9.960938 21.460938 8.933594 23.582031 8.933594 L 26.367188 8.933594 L 26.367188 4.320312 C 25.855469 4.246094 24.242188 4.101562 22.339844 4.101562 C 18.382812 4.101562 15.671875 6.519531 15.671875 10.984375 L 15.671875 33.398438 M 26.148438 14.792969 L 11.132812 14.792969 L 11.132812 20.066406 L 25.488281 20.066406 "/>
</g>
</svg>
