<?xml version="1.0" encoding="UTF-8"?>
<svg xmlns="http://www.w3.org/2000/svg" xmlns:xlink="http://www.w3.org/1999/xlink" width="37.5pt" height="37.499999pt" viewBox="0 0 37.5 37.499999" version="1.2">
<defs>
<clipPath id="clip1">
  <path d="M 0 0 L 37.007812 0 L 37.007812 37.007812 L 0 37.007812 Z M 0 0 "/>
</clipPath>
</defs>
<g id="surface1">
<g clip-path="url(#clip1)" clip-rule="nonzero">
<path style=" stroke:none;fill-rule:nonzero;fill:rgb(14.509583%,82.749939%,39.99939%);fill-opacity:1;" d="M 32.503906 37.488281 L 4.972656 37.488281 C 2.222656 37.488281 0 35.265625 0 32.515625 L 0 4.984375 C 0 2.234375 2.222656 0.0117188 4.972656 0.0117188 L 32.527344 0.0117188 C 35.277344 0.0117188 37.5 2.234375 37.5 4.984375 L 37.5 32.539062 C 37.476562 35.265625 35.25 37.488281 32.503906 37.488281 Z M 32.503906 37.488281 "/>
</g>
<path style=" stroke:none;fill-rule:evenodd;fill:rgb(100%,100%,100%);fill-opacity:1;" d="M 27.730469 9.257812 C 25.382812 6.90625 22.261719 5.609375 18.9375 5.609375 C 12.066406 5.609375 6.496094 11.179688 6.496094 18.050781 C 6.496094 20.25 7.070312 22.398438 8.167969 24.269531 L 6.394531 30.71875 L 12.992188 28.992188 C 14.816406 29.992188 16.863281 30.515625 18.9375 30.515625 C 25.808594 30.515625 31.378906 24.921875 31.378906 18.074219 C 31.355469 14.726562 30.078125 11.605469 27.730469 9.257812 Z M 18.914062 28.417969 C 17.0625 28.417969 15.238281 27.917969 13.640625 26.96875 L 13.265625 26.746094 L 9.34375 27.769531 L 10.394531 23.945312 L 10.144531 23.546875 C 9.117188 21.898438 8.570312 20 8.570312 18.050781 C 8.570312 12.355469 13.214844 7.707031 18.914062 7.707031 C 21.683594 7.707031 24.285156 8.78125 26.234375 10.730469 C 28.179688 12.679688 29.253906 15.277344 29.253906 18.050781 C 29.253906 23.773438 24.609375 28.417969 18.914062 28.417969 Z M 24.582031 20.648438 C 24.285156 20.5 22.734375 19.75 22.460938 19.625 C 22.183594 19.523438 21.960938 19.472656 21.761719 19.773438 C 21.5625 20.074219 20.960938 20.796875 20.785156 21 C 20.609375 21.199219 20.410156 21.222656 20.113281 21.074219 C 19.8125 20.921875 18.789062 20.597656 17.613281 19.523438 C 16.6875 18.699219 16.0625 17.675781 15.890625 17.375 C 15.714844 17.074219 15.863281 16.902344 16.015625 16.75 C 16.164062 16.601562 16.3125 16.375 16.488281 16.203125 C 16.640625 16.027344 16.6875 15.902344 16.789062 15.675781 C 16.890625 15.476562 16.839844 15.277344 16.765625 15.128906 C 16.6875 14.976562 16.0625 13.429688 15.816406 12.828125 C 15.566406 12.230469 15.316406 12.304688 15.113281 12.304688 C 14.941406 12.304688 14.714844 12.304688 14.515625 12.304688 C 14.316406 12.304688 13.964844 12.378906 13.691406 12.703125 C 13.417969 13.003906 12.589844 13.777344 12.589844 15.300781 C 12.589844 16.828125 13.714844 18.300781 13.867188 18.523438 C 14.015625 18.726562 16.0625 21.871094 19.1875 23.222656 C 19.9375 23.546875 20.511719 23.722656 20.960938 23.871094 C 21.710938 24.097656 22.386719 24.070312 22.910156 23.996094 C 23.507812 23.898438 24.757812 23.246094 25.007812 22.523438 C 25.257812 21.796875 25.257812 21.171875 25.183594 21.046875 C 25.109375 20.898438 24.910156 20.824219 24.582031 20.648438 Z M 24.582031 20.648438 "/>
</g>
</svg>
